<svg xmlns="http://www.w3.org/2000/svg" xmlns:xlink="http://www.w3.org/1999/xlink" width="800" zoomAndPan="magnify" viewBox="0 0 600 142.499996" height="190" preserveAspectRatio="xMidYMid meet" version="1.0"><defs><g/><clipPath id="2931c6a76a"><path d="M 1.050781 0 L 598.949219 0 L 598.949219 142 L 1.050781 142 Z M 1.050781 0 " clip-rule="nonzero"/></clipPath><clipPath id="d29b20c427"><path d="M 25.964844 3.6875 L 160.265625 3.6875 L 160.265625 137.992188 L 25.964844 137.992188 Z M 25.964844 3.6875 " clip-rule="nonzero"/></clipPath><clipPath id="59bfc49b56"><path d="M 29.253906 7 L 157.628906 7 L 157.628906 135 L 29.253906 135 Z M 29.253906 7 " clip-rule="nonzero"/></clipPath><clipPath id="c4920ae0c3"><path d="M 32.71875 10.445312 L 154 10.445312 L 154 131.910156 L 32.71875 131.910156 Z M 32.71875 10.445312 " clip-rule="nonzero"/></clipPath><clipPath id="b4dc4c8840"><path d="M 35.710938 13.4375 L 151.25 13.4375 L 151.25 128.976562 L 35.710938 128.976562 Z M 35.710938 13.4375 " clip-rule="nonzero"/></clipPath><clipPath id="fe871f8f07"><path d="M 44.871094 22.59375 L 141.648438 22.59375 L 141.648438 119.371094 L 44.871094 119.371094 Z M 44.871094 22.59375 " clip-rule="nonzero"/></clipPath><clipPath id="c625bc48ab"><path d="M 47.234375 25 L 139.074219 25 L 139.074219 116.800781 L 47.234375 116.800781 Z M 47.234375 25 " clip-rule="nonzero"/></clipPath><clipPath id="5914d0f715"><path d="M 49.726562 27.453125 L 136.628906 27.453125 L 136.628906 114.355469 L 49.726562 114.355469 Z M 49.726562 27.453125 " clip-rule="nonzero"/></clipPath><clipPath id="d1b195928d"><path d="M 51.878906 29.605469 L 134.832031 29.605469 L 134.832031 112.558594 L 51.878906 112.558594 Z M 51.878906 29.605469 " clip-rule="nonzero"/></clipPath><clipPath id="b4058b573b"><path d="M 60.839844 38.566406 L 126 38.566406 L 126 103.742188 L 60.839844 103.742188 Z M 60.839844 38.566406 " clip-rule="nonzero"/></clipPath><clipPath id="40330d313f"><path d="M 62.425781 40.152344 L 123.652344 40.152344 L 123.652344 101.378906 L 62.425781 101.378906 Z M 62.425781 40.152344 " clip-rule="nonzero"/></clipPath><clipPath id="d7863690c1"><path d="M 64.09375 41.820312 L 122.359375 41.820312 L 122.359375 100.085938 L 64.09375 100.085938 Z M 64.09375 41.820312 " clip-rule="nonzero"/></clipPath><clipPath id="519fadf09d"><path d="M 65.265625 43 L 121.554688 43 L 121.554688 99.277344 L 65.265625 99.277344 Z M 65.265625 43 " clip-rule="nonzero"/></clipPath><clipPath id="37c21179f7"><path d="M 72.0625 49.789062 L 114.527344 49.789062 L 114.527344 92.253906 L 72.0625 92.253906 Z M 72.0625 49.789062 " clip-rule="nonzero"/></clipPath><clipPath id="bd69cac144"><path d="M 73.101562 50.824219 L 113.589844 50.824219 L 113.589844 91.3125 L 73.101562 91.3125 Z M 73.101562 50.824219 " clip-rule="nonzero"/></clipPath><clipPath id="b311846a10"><path d="M 74.191406 51.917969 L 112.707031 51.917969 L 112.707031 90.429688 L 74.191406 90.429688 Z M 74.191406 51.917969 " clip-rule="nonzero"/></clipPath><clipPath id="75c95b3496"><path d="M 75.097656 52.820312 L 111.632812 52.820312 L 111.632812 89.359375 L 75.097656 89.359375 Z M 75.097656 52.820312 " clip-rule="nonzero"/></clipPath><clipPath id="e643340890"><path d="M 80.347656 58.070312 L 106 58.070312 L 106 83.746094 L 80.347656 83.746094 Z M 80.347656 58.070312 " clip-rule="nonzero"/></clipPath><clipPath id="c58a254011"><path d="M 80.976562 58.703125 L 105.664062 58.703125 L 105.664062 83.390625 L 80.976562 83.390625 Z M 80.976562 58.703125 " clip-rule="nonzero"/></clipPath><clipPath id="e7ed601cde"><path d="M 81.644531 59.371094 L 105 59.371094 L 105 83 L 81.644531 83 Z M 81.644531 59.371094 " clip-rule="nonzero"/></clipPath><clipPath id="19c43fbd5c"><path d="M 82.277344 60.003906 L 104 60.003906 L 104 81.726562 L 82.277344 81.726562 Z M 82.277344 60.003906 " clip-rule="nonzero"/></clipPath></defs><g clip-path="url(#2931c6a76a)"><path fill="#ffffff" d="M 1.050781 0 L 598.949219 0 L 598.949219 142 L 1.050781 142 Z M 1.050781 0 " fill-opacity="1" fill-rule="nonzero"/><path fill="#ffffff" d="M 1.050781 0 L 598.949219 0 L 598.949219 142 L 1.050781 142 Z M 1.050781 0 " fill-opacity="1" fill-rule="nonzero"/></g><g clip-path="url(#d29b20c427)"><path fill="#000000" d="M 160.058594 89.191406 L 147.105469 30.988281 C 146.996094 30.492188 146.667969 30.074219 146.210938 29.847656 L 93.773438 3.945312 C 93.304688 3.714844 92.757812 3.714844 92.289062 3.945312 L 39.847656 29.847656 C 39.394531 30.074219 39.066406 30.492188 38.953125 30.988281 L 26.003906 89.191406 C 25.894531 89.679688 26.007812 90.191406 26.316406 90.585938 L 62.605469 137.261719 C 62.921875 137.667969 63.410156 137.90625 63.929688 137.90625 L 122.132812 137.90625 C 122.648438 137.90625 123.136719 137.667969 123.457031 137.261719 L 159.746094 90.585938 C 160.050781 90.191406 160.167969 89.679688 160.058594 89.191406 Z M 121.3125 134.554688 L 64.75 134.554688 L 29.449219 89.148438 L 42.054688 32.5 L 93.03125 7.320312 L 144.007812 32.5 L 156.613281 89.148438 Z M 121.3125 134.554688 " fill-opacity="1" fill-rule="nonzero"/></g><g clip-path="url(#59bfc49b56)"><path fill="#ffffff" d="M 157.09375 88.492188 L 144.746094 33.003906 C 144.640625 32.53125 144.328125 32.132812 143.890625 31.917969 L 93.898438 7.222656 C 93.453125 7.003906 92.929688 7.003906 92.484375 7.222656 L 42.492188 31.917969 C 42.054688 32.132812 41.742188 32.53125 41.636719 33.003906 L 29.289062 88.492188 C 29.1875 88.957031 29.296875 89.445312 29.589844 89.820312 L 64.183594 134.320312 C 64.488281 134.707031 64.953125 134.9375 65.449219 134.9375 L 120.933594 134.9375 C 121.429688 134.9375 121.894531 134.707031 122.199219 134.320312 L 156.792969 89.820312 C 157.085938 89.445312 157.195312 88.957031 157.09375 88.492188 Z M 120.152344 131.738281 L 66.230469 131.738281 L 32.574219 88.453125 L 44.59375 34.445312 L 93.191406 10.4375 L 141.789062 34.445312 L 153.808594 88.453125 Z M 120.152344 131.738281 " fill-opacity="1" fill-rule="nonzero"/></g><g clip-path="url(#c4920ae0c3)"><path fill="#0d6efd" d="M 153.640625 87.546875 L 141.960938 35.0625 C 141.863281 34.613281 141.566406 34.238281 141.15625 34.035156 L 93.867188 10.675781 C 93.445312 10.46875 92.949219 10.46875 92.527344 10.675781 L 45.238281 34.035156 C 44.828125 34.238281 44.535156 34.613281 44.433594 35.0625 L 32.753906 87.546875 C 32.65625 87.988281 32.757812 88.449219 33.035156 88.804688 L 65.761719 130.894531 C 66.046875 131.261719 66.488281 131.476562 66.953125 131.476562 L 119.441406 131.476562 C 119.90625 131.476562 120.347656 131.261719 120.632812 130.894531 L 153.359375 88.804688 C 153.636719 88.449219 153.738281 87.988281 153.640625 87.546875 Z M 118.699219 128.453125 L 67.695312 128.453125 L 35.859375 87.507812 L 47.226562 36.425781 L 93.199219 13.71875 L 139.167969 36.425781 L 150.535156 87.507812 Z M 118.699219 128.453125 " fill-opacity="1" fill-rule="nonzero"/></g><g clip-path="url(#b4dc4c8840)"><path fill="#000000" d="M 151.070312 86.992188 L 139.929688 36.921875 C 139.835938 36.496094 139.550781 36.136719 139.160156 35.941406 L 94.046875 13.65625 C 93.644531 13.460938 93.171875 13.460938 92.769531 13.65625 L 47.65625 35.941406 C 47.265625 36.136719 46.984375 36.496094 46.886719 36.921875 L 35.746094 86.992188 C 35.652344 87.414062 35.75 87.851562 36.015625 88.191406 L 67.234375 128.347656 C 67.507812 128.699219 67.929688 128.90625 68.371094 128.90625 L 118.445312 128.90625 C 118.890625 128.90625 119.308594 128.699219 119.582031 128.347656 L 150.804688 88.191406 C 151.066406 87.851562 151.164062 87.414062 151.070312 86.992188 Z M 117.738281 126.019531 L 69.078125 126.019531 L 38.707031 86.957031 L 49.554688 38.222656 L 93.410156 16.558594 L 137.265625 38.222656 L 148.109375 86.957031 Z M 117.738281 126.019531 " fill-opacity="1" fill-rule="nonzero"/></g><g clip-path="url(#fe871f8f07)"><path fill="#000000" d="M 141.496094 84.207031 L 132.164062 42.265625 C 132.085938 41.910156 131.847656 41.609375 131.519531 41.445312 L 93.734375 22.78125 C 93.394531 22.613281 93 22.613281 92.664062 22.78125 L 54.875 41.445312 C 54.546875 41.609375 54.3125 41.910156 54.230469 42.265625 L 44.898438 84.207031 C 44.820312 84.558594 44.902344 84.925781 45.125 85.210938 L 71.273438 118.847656 C 71.503906 119.140625 71.855469 119.3125 72.226562 119.3125 L 114.167969 119.3125 C 114.542969 119.3125 114.894531 119.140625 115.121094 118.847656 L 141.273438 85.210938 C 141.492188 84.925781 141.574219 84.558594 141.496094 84.207031 Z M 113.578125 116.894531 L 72.820312 116.894531 L 47.378906 84.175781 L 56.464844 43.355469 L 93.199219 25.210938 L 129.929688 43.355469 L 139.015625 84.175781 Z M 113.578125 116.894531 " fill-opacity="1" fill-rule="nonzero"/></g><g clip-path="url(#c625bc48ab)"><path fill="#ffffff" d="M 139.164062 83.578125 L 130.285156 43.675781 C 130.207031 43.335938 129.984375 43.046875 129.671875 42.894531 L 93.722656 25.136719 C 93.402344 24.980469 93.023438 24.980469 92.703125 25.136719 L 56.753906 42.894531 C 56.441406 43.046875 56.21875 43.335938 56.140625 43.675781 L 47.261719 83.578125 C 47.1875 83.910156 47.265625 84.261719 47.476562 84.53125 L 72.355469 116.53125 C 72.574219 116.8125 72.90625 116.972656 73.261719 116.972656 L 113.164062 116.972656 C 113.519531 116.972656 113.851562 116.8125 114.070312 116.53125 L 138.949219 84.53125 C 139.160156 84.261719 139.238281 83.910156 139.164062 83.578125 Z M 112.601562 114.675781 L 73.824219 114.675781 L 49.625 83.546875 L 58.265625 44.710938 L 93.214844 27.449219 L 128.160156 44.710938 L 136.800781 83.546875 Z M 112.601562 114.675781 " fill-opacity="1" fill-rule="nonzero"/></g><g clip-path="url(#5914d0f715)"><path fill="#0d6efd" d="M 136.679688 82.894531 L 128.28125 45.15625 C 128.210938 44.832031 127.996094 44.5625 127.703125 44.417969 L 93.699219 27.621094 C 93.394531 27.46875 93.039062 27.46875 92.734375 27.621094 L 58.730469 44.417969 C 58.4375 44.5625 58.222656 44.832031 58.152344 45.15625 L 49.753906 82.894531 C 49.683594 83.210938 49.757812 83.542969 49.957031 83.800781 L 73.488281 114.066406 C 73.695312 114.332031 74.011719 114.484375 74.347656 114.484375 L 112.085938 114.484375 C 112.421875 114.484375 112.738281 114.332031 112.945312 114.066406 L 136.476562 83.800781 C 136.675781 83.542969 136.75 83.210938 136.679688 82.894531 Z M 111.554688 112.3125 L 74.878906 112.3125 L 51.988281 82.871094 L 60.160156 46.136719 L 93.214844 29.808594 L 126.273438 46.136719 L 134.445312 82.871094 Z M 111.554688 112.3125 " fill-opacity="1" fill-rule="nonzero"/></g><g clip-path="url(#d1b195928d)"><path fill="#000000" d="M 134.703125 82.414062 L 126.703125 46.464844 C 126.636719 46.160156 126.433594 45.902344 126.152344 45.761719 L 93.761719 29.765625 C 93.472656 29.621094 93.132812 29.621094 92.84375 29.765625 L 60.457031 45.761719 C 60.175781 45.902344 59.972656 46.160156 59.902344 46.464844 L 51.90625 82.414062 C 51.835938 82.71875 51.90625 83.03125 52.097656 83.277344 L 74.511719 112.105469 C 74.707031 112.359375 75.011719 112.503906 75.328125 112.503906 L 111.277344 112.503906 C 111.597656 112.503906 111.898438 112.359375 112.097656 112.105469 L 134.511719 83.277344 C 134.699219 83.03125 134.769531 82.71875 134.703125 82.414062 Z M 110.773438 110.433594 L 75.835938 110.433594 L 54.03125 82.390625 L 61.816406 47.402344 L 93.304688 31.847656 L 124.789062 47.402344 L 132.574219 82.390625 Z M 110.773438 110.433594 " fill-opacity="1" fill-rule="nonzero"/></g><g clip-path="url(#b4058b573b)"><path fill="#000000" d="M 125.914062 80.058594 L 119.628906 51.8125 C 119.578125 51.574219 119.417969 51.371094 119.195312 51.261719 L 93.75 38.691406 C 93.519531 38.578125 93.253906 38.578125 93.027344 38.691406 L 67.578125 51.261719 C 67.359375 51.371094 67.199219 51.574219 67.144531 51.8125 L 60.859375 80.058594 C 60.808594 80.296875 60.863281 80.542969 61.011719 80.734375 L 78.621094 103.386719 C 78.777344 103.585938 79.015625 103.703125 79.265625 103.703125 L 107.511719 103.703125 C 107.761719 103.703125 108 103.585938 108.152344 103.386719 L 125.765625 80.734375 C 125.914062 80.542969 125.96875 80.296875 125.914062 80.058594 Z M 107.113281 102.074219 L 79.664062 102.074219 L 62.53125 80.039062 L 68.648438 52.546875 L 93.386719 40.328125 L 118.125 52.546875 L 124.246094 80.039062 Z M 107.113281 102.074219 " fill-opacity="1" fill-rule="nonzero"/></g><g clip-path="url(#40330d313f)"><path fill="#ffffff" d="M 124.019531 79.425781 L 118.070312 52.691406 C 118.019531 52.460938 117.867188 52.269531 117.660156 52.167969 L 93.574219 40.269531 C 93.355469 40.164062 93.105469 40.164062 92.890625 40.269531 L 68.804688 52.167969 C 68.59375 52.269531 68.445312 52.460938 68.394531 52.691406 L 62.445312 79.425781 C 62.394531 79.648438 62.445312 79.882812 62.585938 80.066406 L 79.257812 101.503906 C 79.402344 101.691406 79.625 101.800781 79.863281 101.800781 L 106.597656 101.800781 C 106.835938 101.800781 107.0625 101.691406 107.207031 101.503906 L 123.875 80.066406 C 124.015625 79.882812 124.070312 79.648438 124.019531 79.425781 Z M 106.222656 100.261719 L 80.242188 100.261719 L 64.027344 79.40625 L 69.816406 53.386719 L 93.230469 41.820312 L 116.648438 53.386719 L 122.4375 79.40625 Z M 106.222656 100.261719 " fill-opacity="1" fill-rule="nonzero"/></g><g clip-path="url(#d7863690c1)"><path fill="#0d6efd" d="M 122.363281 78.972656 L 116.734375 53.683594 C 116.6875 53.46875 116.542969 53.285156 116.34375 53.1875 L 93.558594 41.933594 C 93.355469 41.832031 93.117188 41.832031 92.914062 41.933594 L 70.128906 53.1875 C 69.929688 53.285156 69.789062 53.46875 69.742188 53.683594 L 64.113281 78.972656 C 64.066406 79.183594 64.113281 79.40625 64.25 79.578125 L 80.015625 99.859375 C 80.15625 100.039062 80.367188 100.140625 80.59375 100.140625 L 105.882812 100.140625 C 106.105469 100.140625 106.320312 100.039062 106.457031 99.859375 L 122.226562 79.578125 C 122.359375 79.40625 122.410156 79.183594 122.363281 78.972656 Z M 105.527344 98.683594 L 80.949219 98.683594 L 65.609375 78.953125 L 71.085938 54.339844 L 93.238281 43.398438 L 115.386719 54.339844 L 120.863281 78.953125 Z M 105.527344 98.683594 " fill-opacity="1" fill-rule="nonzero"/></g><g clip-path="url(#519fadf09d)"><path fill="#000000" d="M 121.464844 78.824219 L 116.039062 54.433594 C 115.992188 54.222656 115.855469 54.046875 115.664062 53.953125 L 93.683594 43.097656 C 93.488281 43 93.257812 43 93.0625 43.097656 L 71.085938 53.953125 C 70.894531 54.046875 70.757812 54.222656 70.710938 54.433594 L 65.28125 78.824219 C 65.234375 79.03125 65.285156 79.246094 65.414062 79.410156 L 80.621094 98.972656 C 80.753906 99.144531 80.960938 99.242188 81.175781 99.242188 L 105.570312 99.242188 C 105.789062 99.242188 105.992188 99.144531 106.125 98.972656 L 121.335938 79.410156 C 121.464844 79.246094 121.511719 79.03125 121.464844 78.824219 Z M 105.226562 97.839844 L 81.519531 97.839844 L 66.726562 78.808594 L 72.007812 55.066406 L 93.375 44.511719 L 114.738281 55.066406 L 120.023438 78.808594 Z M 105.226562 97.839844 " fill-opacity="1" fill-rule="nonzero"/></g><g clip-path="url(#37c21179f7)"><path fill="#000000" d="M 114.460938 76.824219 L 110.367188 58.421875 C 110.332031 58.265625 110.226562 58.132812 110.082031 58.0625 L 93.503906 49.871094 C 93.355469 49.796875 93.183594 49.796875 93.035156 49.871094 L 76.453125 58.0625 C 76.308594 58.132812 76.207031 58.265625 76.171875 58.421875 L 72.078125 76.824219 C 72.042969 76.976562 72.078125 77.140625 72.175781 77.265625 L 83.648438 92.023438 C 83.75 92.152344 83.902344 92.226562 84.066406 92.226562 L 102.46875 92.226562 C 102.632812 92.226562 102.789062 92.152344 102.890625 92.023438 L 114.363281 77.265625 C 114.460938 77.140625 114.496094 76.976562 114.460938 76.824219 Z M 102.210938 91.167969 L 84.328125 91.167969 L 73.164062 76.808594 L 77.152344 58.898438 L 93.269531 50.9375 L 109.386719 58.898438 L 113.371094 76.808594 Z M 102.210938 91.167969 " fill-opacity="1" fill-rule="nonzero"/></g><g clip-path="url(#bd69cac144)"><path fill="#ffffff" d="M 113.386719 76.515625 L 109.496094 59.027344 C 109.464844 58.878906 109.363281 58.753906 109.226562 58.683594 L 93.472656 50.902344 C 93.332031 50.832031 93.167969 50.832031 93.027344 50.902344 L 77.273438 58.683594 C 77.136719 58.753906 77.035156 58.878906 77.003906 59.027344 L 73.113281 76.515625 C 73.078125 76.660156 73.113281 76.8125 73.207031 76.933594 L 84.109375 90.957031 C 84.203125 91.078125 84.351562 91.148438 84.507812 91.148438 L 101.992188 91.148438 C 102.148438 91.148438 102.296875 91.078125 102.390625 90.957031 L 113.292969 76.933594 C 113.386719 76.8125 113.421875 76.660156 113.386719 76.515625 Z M 101.746094 90.144531 L 84.753906 90.144531 L 74.148438 76.5 L 77.933594 59.480469 L 93.25 51.917969 L 108.566406 59.480469 L 112.351562 76.5 Z M 101.746094 90.144531 " fill-opacity="1" fill-rule="nonzero"/></g><g clip-path="url(#b311846a10)"><path fill="#0d6efd" d="M 112.292969 76.210938 L 108.613281 59.675781 C 108.582031 59.535156 108.488281 59.414062 108.359375 59.351562 L 93.457031 51.992188 C 93.324219 51.925781 93.167969 51.925781 93.035156 51.992188 L 78.136719 59.351562 C 78.007812 59.414062 77.914062 59.535156 77.882812 59.675781 L 74.203125 76.210938 C 74.171875 76.351562 74.207031 76.496094 74.292969 76.605469 L 84.601562 89.867188 C 84.695312 89.984375 84.832031 90.054688 84.980469 90.054688 L 101.515625 90.054688 C 101.664062 90.054688 101.800781 89.984375 101.890625 89.867188 L 112.203125 76.605469 C 112.289062 76.496094 112.324219 76.351562 112.292969 76.210938 Z M 101.28125 89.101562 L 85.210938 89.101562 L 75.183594 76.199219 L 78.765625 60.105469 L 93.246094 52.949219 L 107.730469 60.105469 L 111.3125 76.199219 Z M 101.28125 89.101562 " fill-opacity="1" fill-rule="nonzero"/></g><g clip-path="url(#75c95b3496)"><path fill="#000000" d="M 111.578125 76.082031 L 108.054688 60.25 C 108.023438 60.113281 107.933594 60 107.8125 59.9375 L 93.542969 52.890625 C 93.417969 52.828125 93.269531 52.828125 93.140625 52.890625 L 78.875 59.9375 C 78.75 60 78.660156 60.113281 78.628906 60.25 L 75.105469 76.082031 C 75.078125 76.214844 75.109375 76.355469 75.191406 76.460938 L 85.066406 89.160156 C 85.152344 89.273438 85.285156 89.335938 85.425781 89.335938 L 101.261719 89.335938 C 101.402344 89.335938 101.535156 89.273438 101.621094 89.160156 L 111.492188 76.460938 C 111.578125 76.355469 111.609375 76.214844 111.578125 76.082031 Z M 101.035156 88.425781 L 85.648438 88.425781 L 76.042969 76.074219 L 79.472656 60.660156 L 93.34375 53.808594 L 107.210938 60.660156 L 110.640625 76.074219 Z M 101.035156 88.425781 " fill-opacity="1" fill-rule="nonzero"/></g><g clip-path="url(#e643340890)"><path fill="#000000" d="M 105.980469 74.417969 L 103.503906 63.289062 C 103.484375 63.195312 103.421875 63.117188 103.335938 63.074219 L 93.308594 58.121094 C 93.21875 58.078125 93.117188 58.078125 93.027344 58.121094 L 83 63.074219 C 82.914062 63.117188 82.851562 63.195312 82.828125 63.289062 L 80.355469 74.417969 C 80.332031 74.511719 80.355469 74.609375 80.414062 74.683594 L 87.351562 83.609375 C 87.410156 83.683594 87.503906 83.730469 87.605469 83.730469 L 98.730469 83.730469 C 98.832031 83.730469 98.921875 83.683594 98.984375 83.609375 L 105.921875 74.683594 C 105.980469 74.609375 106.003906 74.511719 105.980469 74.417969 Z M 98.574219 83.089844 L 87.761719 83.089844 L 81.011719 74.410156 L 83.421875 63.578125 L 93.167969 58.765625 L 102.914062 63.578125 L 105.324219 74.410156 Z M 98.574219 83.089844 " fill-opacity="1" fill-rule="nonzero"/></g><g clip-path="url(#c58a254011)"><path fill="#ffffff" d="M 105.519531 74.351562 L 103.148438 63.699219 C 103.128906 63.609375 103.070312 63.53125 102.984375 63.492188 L 93.386719 58.75 C 93.300781 58.707031 93.203125 58.707031 93.117188 58.75 L 83.519531 63.492188 C 83.4375 63.53125 83.375 63.609375 83.355469 63.699219 L 80.984375 74.351562 C 80.964844 74.441406 80.984375 74.535156 81.042969 74.605469 L 87.683594 83.148438 C 87.742188 83.222656 87.832031 83.269531 87.925781 83.269531 L 98.578125 83.269531 C 98.671875 83.269531 98.761719 83.222656 98.820312 83.148438 L 105.460938 74.605469 C 105.519531 74.535156 105.539062 74.441406 105.519531 74.351562 Z M 98.429688 82.65625 L 88.078125 82.65625 L 81.617188 74.34375 L 83.921875 63.976562 L 93.253906 59.367188 L 102.582031 63.976562 L 104.890625 74.34375 Z M 98.429688 82.65625 " fill-opacity="1" fill-rule="nonzero"/></g><g clip-path="url(#e7ed601cde)"><path fill="#0d6efd" d="M 104.859375 74.171875 L 102.617188 64.09375 C 102.597656 64.011719 102.542969 63.9375 102.464844 63.898438 L 93.382812 59.414062 C 93.304688 59.375 93.207031 59.375 93.125 59.414062 L 84.046875 63.898438 C 83.96875 63.9375 83.910156 64.011719 83.894531 64.09375 L 81.648438 74.171875 C 81.632812 74.257812 81.652344 74.347656 81.703125 74.414062 L 87.988281 82.496094 C 88.042969 82.566406 88.128906 82.609375 88.21875 82.609375 L 98.292969 82.609375 C 98.382812 82.609375 98.46875 82.566406 98.523438 82.496094 L 104.804688 74.414062 C 104.859375 74.347656 104.878906 74.257812 104.859375 74.171875 Z M 98.152344 82.027344 L 88.359375 82.027344 L 82.246094 74.164062 L 84.429688 64.359375 L 93.253906 59.996094 L 102.082031 64.359375 L 104.265625 74.164062 Z M 98.152344 82.027344 " fill-opacity="1" fill-rule="nonzero"/></g><g clip-path="url(#19c43fbd5c)"><path fill="#000000" d="M 103.96875 73.835938 L 101.875 64.417969 C 101.855469 64.339844 101.804688 64.269531 101.730469 64.234375 L 93.246094 60.042969 C 93.171875 60.007812 93.082031 60.007812 93.007812 60.042969 L 84.523438 64.234375 C 84.449219 64.269531 84.398438 64.339844 84.378906 64.417969 L 82.285156 73.835938 C 82.265625 73.914062 82.285156 73.996094 82.335938 74.058594 L 88.203125 81.609375 C 88.257812 81.675781 88.335938 81.714844 88.417969 81.714844 L 97.832031 81.714844 C 97.917969 81.714844 97.996094 81.675781 98.046875 81.609375 L 103.917969 74.058594 C 103.96875 73.996094 103.988281 73.914062 103.96875 73.835938 Z M 97.703125 81.171875 L 88.550781 81.171875 L 82.839844 73.828125 L 84.878906 64.664062 L 93.125 60.589844 L 101.371094 64.664062 L 103.410156 73.828125 Z M 97.703125 81.171875 " fill-opacity="1" fill-rule="nonzero"/></g><g fill="#0d6efd" fill-opacity="1"><g transform="translate(166.303844, 103.075492)"><g><path d="M 49.953125 0 L 34 0 L 15.28125 -21.5625 L 15.28125 0 L 3.703125 0 L 3.703125 -50.8125 L 15.28125 -50.8125 L 15.28125 -30.0625 L 32.703125 -50.8125 L 46.75 -50.8125 L 26.296875 -26.734375 Z M 49.953125 0 "/></g></g></g><g fill="#0d6efd" fill-opacity="1"><g transform="translate(214.894934, 103.075492)"><g><path d="M 42.75 -50.8125 L 42.75 -18.046875 C 42.75 -11.804688 41.0625 -7.082031 37.6875 -3.875 C 34.320312 -0.675781 29.394531 0.921875 22.90625 0.921875 C 16.425781 0.921875 11.5 -0.675781 8.125 -3.875 C 4.757812 -7.082031 3.078125 -11.804688 3.078125 -18.046875 L 3.078125 -50.8125 L 14.65625 -50.8125 L 14.65625 -21.4375 C 14.65625 -17.332031 15.300781 -14.476562 16.59375 -12.875 C 17.894531 -11.269531 20 -10.46875 22.90625 -10.46875 C 25.820312 -10.46875 27.925781 -11.269531 29.21875 -12.875 C 30.519531 -14.476562 31.171875 -17.332031 31.171875 -21.4375 L 31.171875 -50.8125 Z M 42.75 -50.8125 "/></g></g></g><g fill="#0d6efd" fill-opacity="1"><g transform="translate(260.837831, 103.075492)"><g><path d="M 3.703125 -50.8125 L 19.46875 -50.8125 C 24.226562 -50.8125 28.023438 -49.796875 30.859375 -47.765625 C 33.691406 -45.734375 35.109375 -42.4375 35.109375 -37.875 C 35.109375 -32.789062 32.992188 -29.160156 28.765625 -26.984375 C 35.992188 -25.703125 39.609375 -21.429688 39.609375 -14.171875 C 39.609375 -9.898438 38.128906 -6.46875 35.171875 -3.875 C 32.210938 -1.289062 28.144531 0 22.96875 0 L 3.703125 0 Z M 15.28125 -30.921875 L 16.203125 -30.921875 C 18.785156 -30.921875 20.710938 -31.367188 21.984375 -32.265625 C 23.253906 -33.171875 23.890625 -34.648438 23.890625 -36.703125 C 23.890625 -40.160156 21.328125 -41.890625 16.203125 -41.890625 L 15.28125 -41.890625 Z M 15.28125 -8.9375 L 18.90625 -8.9375 C 24.570312 -8.9375 27.40625 -10.820312 27.40625 -14.59375 C 27.40625 -16.851562 26.695312 -18.472656 25.28125 -19.453125 C 23.863281 -20.441406 21.738281 -20.9375 18.90625 -20.9375 L 15.28125 -20.9375 Z M 15.28125 -8.9375 "/></g></g></g><g fill="#0d6efd" fill-opacity="1"><g transform="translate(301.977062, 103.075492)"><g><path d="M 32.765625 -50.8125 L 32.765625 -40.65625 L 15.28125 -40.65625 L 15.28125 -30.546875 L 32.03125 -30.546875 L 32.03125 -20.390625 L 15.28125 -20.390625 L 15.28125 -10.15625 L 32.765625 -10.15625 L 32.765625 0 L 3.703125 0 L 3.703125 -50.8125 Z M 32.765625 -50.8125 "/></g></g></g><g fill="#000000" fill-opacity="1"><g transform="translate(337.826132, 103.075492)"><g><path d="M 3.703125 -50.8125 L 19.46875 -50.8125 C 24.226562 -50.8125 28.023438 -49.796875 30.859375 -47.765625 C 33.691406 -45.734375 35.109375 -42.4375 35.109375 -37.875 C 35.109375 -32.789062 32.992188 -29.160156 28.765625 -26.984375 C 35.992188 -25.703125 39.609375 -21.429688 39.609375 -14.171875 C 39.609375 -9.898438 38.128906 -6.46875 35.171875 -3.875 C 32.210938 -1.289062 28.144531 0 22.96875 0 L 3.703125 0 Z M 15.28125 -30.921875 L 16.203125 -30.921875 C 18.785156 -30.921875 20.710938 -31.367188 21.984375 -32.265625 C 23.253906 -33.171875 23.890625 -34.648438 23.890625 -36.703125 C 23.890625 -40.160156 21.328125 -41.890625 16.203125 -41.890625 L 15.28125 -41.890625 Z M 15.28125 -8.9375 L 18.90625 -8.9375 C 24.570312 -8.9375 27.40625 -10.820312 27.40625 -14.59375 C 27.40625 -16.851562 26.695312 -18.472656 25.28125 -19.453125 C 23.863281 -20.441406 21.738281 -20.9375 18.90625 -20.9375 L 15.28125 -20.9375 Z M 15.28125 -8.9375 "/></g></g></g><g fill="#000000" fill-opacity="1"><g transform="translate(378.965362, 103.075492)"><g><path d="M 42.75 -50.8125 L 42.75 -18.046875 C 42.75 -11.804688 41.0625 -7.082031 37.6875 -3.875 C 34.320312 -0.675781 29.394531 0.921875 22.90625 0.921875 C 16.425781 0.921875 11.5 -0.675781 8.125 -3.875 C 4.757812 -7.082031 3.078125 -11.804688 3.078125 -18.046875 L 3.078125 -50.8125 L 14.65625 -50.8125 L 14.65625 -21.4375 C 14.65625 -17.332031 15.300781 -14.476562 16.59375 -12.875 C 17.894531 -11.269531 20 -10.46875 22.90625 -10.46875 C 25.820312 -10.46875 27.925781 -11.269531 29.21875 -12.875 C 30.519531 -14.476562 31.171875 -17.332031 31.171875 -21.4375 L 31.171875 -50.8125 Z M 42.75 -50.8125 "/></g></g></g><g fill="#000000" fill-opacity="1"><g transform="translate(424.908259, 103.075492)"><g><path d="M 3.703125 -50.8125 L 18.421875 -50.8125 C 25.484375 -50.8125 31.519531 -48.398438 36.53125 -43.578125 C 41.539062 -38.753906 44.046875 -32.707031 44.046875 -25.4375 C 44.046875 -18.125 41.550781 -12.054688 36.5625 -7.234375 C 31.570312 -2.410156 25.523438 0 18.421875 0 L 3.703125 0 Z M 15.28125 -10.34375 L 17.0625 -10.34375 C 21.289062 -10.34375 24.75 -11.769531 27.4375 -14.625 C 30.125 -17.476562 31.488281 -21.0625 31.53125 -25.375 C 31.53125 -29.6875 30.1875 -33.28125 27.5 -36.15625 C 24.8125 -39.03125 21.332031 -40.46875 17.0625 -40.46875 L 15.28125 -40.46875 Z M 15.28125 -10.34375 "/></g></g></g><g fill="#000000" fill-opacity="1"><g transform="translate(470.48164, 103.075492)"><g><path d="M 3.703125 -50.8125 L 18.421875 -50.8125 C 25.484375 -50.8125 31.519531 -48.398438 36.53125 -43.578125 C 41.539062 -38.753906 44.046875 -32.707031 44.046875 -25.4375 C 44.046875 -18.125 41.550781 -12.054688 36.5625 -7.234375 C 31.570312 -2.410156 25.523438 0 18.421875 0 L 3.703125 0 Z M 15.28125 -10.34375 L 17.0625 -10.34375 C 21.289062 -10.34375 24.75 -11.769531 27.4375 -14.625 C 30.125 -17.476562 31.488281 -21.0625 31.53125 -25.375 C 31.53125 -29.6875 30.1875 -33.28125 27.5 -36.15625 C 24.8125 -39.03125 21.332031 -40.46875 17.0625 -40.46875 L 15.28125 -40.46875 Z M 15.28125 -10.34375 "/></g></g></g><g fill="#000000" fill-opacity="1"><g transform="translate(516.055022, 103.075492)"><g><path d="M -1.84375 -50.8125 L 12.078125 -50.8125 L 22.671875 -34.546875 L 33.265625 -50.8125 L 47.1875 -50.8125 L 28.453125 -22.796875 L 28.453125 0 L 16.875 0 L 16.875 -22.796875 Z M -1.84375 -50.8125 "/></g></g></g></svg>